PathFileType	4	(X/Y/Z)	/Users/visionmauri/4_2_1_f_1_Sports2D/4_2_1_f_1_Sports2D_m_person00.trc
DataRate	CameraRate	NumFrames	NumMarkers	Units	OrigDataRate	OrigDataStartFrame	OrigNumFrames
30.0	30.0	11	22	m	30.0	0	382
Frame#	Time	Hip			RHip			RKnee			RAnkle			RBigToe			RSmallToe			RHeel			LHip			LKnee			LAnkle			LBigToe			LSmallToe			LHeel			Neck			Head			Nose			RShoulder			RElbow			RWrist			LShoulder			LElbow			LWrist			
		X1	Y1	Z1	X2	Y2	Z2	X3	Y3	Z3	X4	Y4	Z4	X5	Y5	Z5	X6	Y6	Z6	X7	Y7	Z7	X8	Y8	Z8	X9	Y9	Z9	X10	Y10	Z10	X11	Y11	Z11	X12	Y12	Z12	X13	Y13	Z13	X14	Y14	Z14	X15	Y15	Z15	X16	Y16	Z16	X17	Y17	Z17	X18	Y18	Z18	X19	Y19	Z19	X20	Y20	Z20	X21	Y21	Z21	X22	Y22	Z22
0	0.0	1.2051878686770776	0.9014565900030211	0.0301	1.323643146106608	0.8302296045990714	0.0301	1.2479109712417231	0.45285573821077046	0.129	1.2769628423276618	0.3947008569437182	0.023	1.3245815531890701	0.4109025903083197	0.2179	1.4033392885907408	0.4325571858012251	0.1804	1.2653569633905992	0.3956448487463497	-0.0119	1.0561725957395935	0.8719329445916851	0.0301	0.872141938734623	0.4274198233478411	0.129	0.9033156570290206	-0.1198605570908737	0.023	0.7279635595498967	-0.18108195719822848	0.2179	0.7292226192919754	-0.20360010474300078	0.1804	0.9513702979618681	-0.20067246068628897	-0.0119	1.2750642009174622	1.5349439348763845	0.0008	1.2517459477018855	1.683287709487644	0.0655	1.220858364611456	1.579357652253387	0.1076	1.4932449501694325	1.4216244092924575	-0.01275	1.6393954456169715	1.1029953516031377	0.0702	1.5988306833693013	0.8171686747402425	0.1076	1.059827819226399	1.5244306851928475	-0.01275	0.8774720800304681	1.2271464806148005	0.0702	0.7436625925070094	0.9580832822466743	0.1076
1	0.033420822397200345	1.201579355321639	0.9027142433574736	0.0301	1.3232198649184193	0.8357593553556047	0.0301	1.2485727042103782	0.4655200780167878	0.129	1.2754645853189754	0.4011400937820119	0.023	1.3041907673257105	0.4159388215228521	0.2179	1.3948801994522186	0.43933487973597113	0.1804	1.2636170986268236	0.40265570601618395	-0.0119	1.0534545379480282	0.8735402302828335	0.0301	0.8732933555579127	0.4265236543477068	0.129	0.8967902969685901	-0.11656287925162703	0.023	0.726284512542225	-0.1678291374767978	0.2179	0.7255774686196129	-0.1917065508653342	0.1804	0.9402477763949936	-0.19605468934125428	-0.0119	1.2719119054702392	1.5307426734362164	0.0008	1.2471859823240237	1.6834258122021728	0.0655	1.2216589771127986	1.5828191330218353	0.1076	1.492318451063716	1.4241291736204342	-0.01275	1.6363711632283562	1.1041503984058572	0.0702	1.6005856048476226	0.8238617019189421	0.1076	1.0576194660302074	1.5233781672765385	-0.01275	0.8768205632966387	1.2276020351359134	0.0702	0.7433119405589461	0.9605729876841853	0.1076
2	0.06684164479440069	1.1938454749281895	0.9040685729018038	0.0301	1.3186301984425592	0.8413648242603344	0.0301	1.2479998811120718	0.47912890283588927	0.129	1.267569588751004	0.4057134028969747	0.023	1.27784552831154	0.42132199200116793	0.2179	1.3672245173572937	0.4432316488036078	0.1804	1.2567584247844301	0.4095961685931771	-0.0119	1.0463567413844934	0.8748933369535864	0.0301	0.8760445845715008	0.4250342587757124	0.129	0.8838261779383795	-0.10899768339713674	0.023	0.7245338979077645	-0.14276042589036422	0.2179	0.7193652100053969	-0.17013308603316388	0.1804	0.9201495170692549	-0.19006472411546124	-0.0119	1.2664302280730975	1.527148030615715	0.0008	1.2408986792697898	1.6817535389805216	0.0655	1.216156791495342	1.582070373933026	0.1076	1.48950714446864	1.4244372250131954	-0.01275	1.6314459375086208	1.1078779087575	0.0702	1.600597227842562	0.8317384593875355	0.1076	1.0550461539082197	1.5238505691814168	-0.01275	0.8752068952905092	1.2275549405752972	0.0702	0.7421762237515626	0.9629659069384338	0.1076
3	0.10026246719160103	1.1827595078899165	0.9043976363548972	0.0301	1.3104548758973393	0.8465120283679619	0.0301	1.2460700235454523	0.48833786432821963	0.129	1.2557519276024554	0.40628043837341105	0.023	1.2543396904412645	0.42384532068923314	0.2179	1.3299752433068932	0.442326399008264	0.1804	1.2485514804950786	0.40965290606048993	-0.0119	1.036295650300078	0.87762355377191	0.0301	0.8807221973405227	0.42206179603817906	0.129	0.8655715872944041	-0.09620734719521001	0.023	0.7245506554223211	-0.10858055457258875	0.2179	0.7121127798342373	-0.14071989193074003	0.1804	0.8940024470421789	-0.18187105328770586	-0.0119	1.2601920087617116	1.5258259157945524	0.0008	1.233441764224503	1.6794816090373053	0.0655	1.2045472472604217	1.5755018707367914	0.1076	1.483953055661501	1.4216929859501508	-0.01275	1.6249356218454976	1.1133123032266574	0.0702	1.5981449181456189	0.8378925191668251	0.1076	1.0514678860023017	1.5250801949492108	-0.01275	0.8717417334563682	1.2272326426765834	0.0702	0.7406563675376648	0.9648672344320044	0.1076
4	0.13368328958880138	1.1731877362165908	0.902571516041472	0.0301	1.3028495473792039	0.8502562337354815	0.0301	1.2435255643195018	0.49117867122340564	0.129	1.2480815889360426	0.4054147661262596	0.023	1.2404900455185945	0.4174357568623731	0.2179	1.3082836792389325	0.4332061938515535	0.1804	1.24772554099314	0.4002291694964256	-0.0119	1.028743528403285	0.8820071937216591	0.0301	0.8868750716047762	0.4180432487476813	0.129	0.84710052388316	-0.07883260235739886	0.023	0.7297734049455624	-0.07502370947263248	0.2179	0.7084634597999885	-0.10947931033023356	0.1804	0.8693292799814359	-0.1682791417834642	-0.0119	1.2551159719277587	1.5268467236867806	0.0008	1.2266512002228878	1.6776306357104285	0.0655	1.1938457416141632	1.568160672795363	0.1076	1.4756777585803482	1.41859144859571	-0.01275	1.617537289536893	1.1177682174878012	0.0702	1.5946015071509072	0.8405681383739891	0.1076	1.0452029248343548	1.5248412801907558	-0.01275	0.8664230825425258	1.2279047519623683	0.0702	0.7397497704968105	0.9667107019002715	0.1076
5	0.16710411198600172	1.168256752111068	0.9005661555617319	0.0301	1.298247308919327	0.8530374735630919	0.0301	1.241185511111577	0.4905904708242678	0.129	1.2470168577406797	0.40786758559196407	0.023	1.231662464902958	0.4013873519461243	0.2179	1.307262553408034	0.4148659370038868	0.1804	1.252942479316556	0.38967783294415936	-0.0119	1.0261174854696231	0.8861886969843367	0.0301	0.8939678622829695	0.41504030983449386	0.129	0.8323416077869233	-0.05811009514508102	0.023	0.7411339269967371	-0.04753835588898005	0.2179	0.71111130162652	-0.07981669034985758	0.1804	0.8497494091228028	-0.14756276067942814	-0.0119	1.2496848989093525	1.5284650818654142	0.0008	1.2207937174891437	1.6747033724035763	0.0655	1.1897573230878495	1.5662348599309919	0.1076	1.4655561144347276	1.418053383004142	-0.01275	1.6094953782908596	1.120783834236252	0.0702	1.5916417796220192	0.8416895488213186	0.1076	1.0360945372623689	1.5224621406573835	-0.01275	0.8607284008733304	1.230553603908995	0.0702	0.7400233842118472	0.9688344475511033	0.1076
6	0.20052493438320207	1.1658928113187332	0.9018018607065534	0.0301	1.295698647606449	0.8577036358527702	0.0301	1.2398779874876082	0.48789825124669806	0.129	1.2476900303173044	0.4125449730446917	0.023	1.2243126591848945	0.3854071715285344	0.2179	1.3121355216051378	0.3971504248815406	0.1804	1.253768449560801	0.3853141137919568	-0.0119	1.0252528090581905	0.8901790714147939	0.0301	0.9012517889894862	0.4135457454171643	0.129	0.8240789710991012	-0.037731201919583034	0.023	0.7550667649108403	-0.028768289537830224	0.2179	0.7182977825421961	-0.0572778375890483	0.1804	0.8374014446746412	-0.12560215542146277	-0.0119	1.2415872296875046	1.5285170734599574	0.0008	1.2134362619945773	1.6710335602360902	0.0655	1.191060680375836	1.5686560726230492	0.1076	1.455827484550186	1.4193610420704965	-0.01275	1.6017247466499354	1.1237896528786353	0.0702	1.5895975530697068	0.8428577720713836	0.1076	1.02615159757842	1.5186188202980437	-0.01275	0.8558349400551379	1.2347052862250005	0.0702	0.7411553002078767	0.9706278273740592	0.1076
7	0.23394575678040241	1.1624616167425312	0.9052390980175609	0.0301	1.2929305496276569	0.8646786301065316	0.0301	1.2395591543701956	0.4846317453917315	0.129	1.2467803354670055	0.41544439988835696	0.023	1.2197939736230674	0.3783376562140001	0.2179	1.3135506418729133	0.3889595894443777	0.1804	1.2481713222781432	0.38611925328718794	-0.0119	1.0223694203985696	0.8943123474322823	0.0301	0.9075657484434322	0.4126321198202228	0.129	0.8236805832343183	-0.023222527846709466	0.023	0.7693311621821708	-0.022617756975272203	0.2179	0.7281820035144578	-0.04878028311726303	0.1804	0.8341216580394487	-0.11098669409779252	-0.0119	1.2314268819313314	1.5252062667563318	0.0008	1.2044894911004034	1.669549971900958	0.0655	1.1931801655902072	1.5708454837678938	0.1076	1.448723559715194	1.4211477991188504	-0.01275	1.5949177427616137	1.1268426370338014	0.0702	1.588108111099367	0.8441311863103984	0.1076	1.0161908182010362	1.5143783877839223	-0.01275	0.8513291131299906	1.2390066390451209	0.0702	0.7421212060026987	0.97157872362703	0.1076
8	0.26736657917760276	1.1573004677351832	0.9070567876778257	0.0301	1.2883898391875912	0.870354043577741	0.0301	1.2388113338934277	0.4830504383120964	0.129	1.2462912209824453	0.4178184371620468	0.023	1.2171739884176602	0.3787048321835432	0.2179	1.3120620146713378	0.3863472828247549	0.1804	1.2441778110154653	0.39018301068292177	-0.0119	1.0176814330532582	0.8969606648614998	0.0301	0.91191892457474	0.4133918395698306	0.129	0.8295159359444187	-0.018293817720156497	0.023	0.7849940198891002	-0.028549337214017288	0.2179	0.7409123546975502	-0.05219866824856984	0.1804	0.837958244192454	-0.10614791888508508	-0.0119	1.2220088810999554	1.5202353323054048	0.0008	1.1989422088471628	1.6711881244215585	0.0655	1.1937624781151497	1.571661333795208	0.1076	1.4433314497672034	1.4242890263008978	-0.01275	1.588351527039705	1.128750193187875	0.0702	1.5864482476037645	0.8458456268632164	0.1076	1.0061203381117667	1.5118675526709418	-0.01275	0.8464923085222176	1.2423089174237172	0.0702	0.7424180517987977	0.9718553207079776	0.1076
9	0.3007874015748031	1.1515722641350186	0.9068353986989306	0.0301	1.2822479847874761	0.8729005306800556	0.0301	1.2365261587340015	0.48371154714349474	0.129	1.2466860110502704	0.42259954663909083	0.023	1.2136364075563522	0.38300056842021724	0.2179	1.3081632335551956	0.38534360640046617	0.1804	1.2444834105944778	0.39787468127142983	-0.0119	1.0130654899064016	0.8976057838799759	0.0301	0.914339076183227	0.4161380125324359	0.129	0.8368772782373077	-0.02192448132811078	0.023	0.7996085430162303	-0.03740821142604301	0.2179	0.7536447910562938	-0.057292625174142624	0.1804	0.8437346515550651	-0.10791940276237787	-0.0119	1.2143495143771694	1.5184814430642213	0.0008	1.1989193654980033	1.6743275952913967	0.0655	1.193635179408865	1.5724710169949567	0.1076	1.436195664266066	1.4293990830144356	-0.01275	1.5805858492349338	1.1294792235223552	0.0702	1.583722816555091	0.8483897864980733	0.1076	0.9964867176686856	1.512118760587614	-0.01275	0.8405065921973857	1.244583622036198	0.0702	0.7421878939148916	0.9719960017626549	0.1076
10	0.33420822397200345	1.145024217436917	0.9065727695513051	0.0301	1.2751519697077922	0.8739507783038746	0.0301	1.2331998903716967	0.48644805736058566	0.129	1.2433635059084212	0.4272193039527321	0.023	1.2099322760954285	0.3937693351040511	0.2179	1.298786692819407	0.388383836131701	0.1804	1.2413798174046136	0.40633987009863026	-0.0119	1.0080068379544147	0.897491579650264	0.0301	0.915329736158049	0.4168521274677774	0.129	0.841073238040278	-0.028448538637646025	0.023	0.8085892273254803	-0.04147253147260692	0.2179	0.7610547737809393	-0.05942183986405096	0.1804	0.8472144177248936	-0.11227384188892997	-0.0119	1.2060941766614437	1.5224745034087757	0.0008	1.1997450261477804	1.676923149992097	0.0655	1.1944410060531025	1.5744448634866026	0.1076	1.4254900329531066	1.4346091912158019	-0.01275	1.5701168745081342	1.1298377311691092	0.0702	1.580055595246738	0.8509907372406001	0.1076	0.9869002082854388	1.5133112501083652	-0.01275	0.8320090708218125	1.2465431564783047	0.0702	0.7413542962137489	0.9723828074307004	0.1076
